# xmcd CD database file
#
# Track frame offsets:
#	150
#	44635
#	149188
#	186814
#	209698
#	226547
#	237056
#	277926
#
# Disc length: 4039 seconds
#
# Revision: 1
# Processed by: cddbd v1.4PL0 Copyright (c) Steve Scherf et al.
# Submitted via: CDex 1.51
#
DISCID=740fc508
DTITLE=chick corea - return to forever
DYEAR=1900
DGENRE=Jazz
TTITLE0=spain
TTITLE1=some time ago
TTITLE2=some time ago
TTITLE3=la fiesta
TTITLE4=song for sally
TTITLE5=where have i known you
TTITLE6=crystal silence
TTITLE7=blue bossa
EXTD=
EXTT0=
EXTT1=
EXTT2=
EXTT3=
EXTT4=
EXTT5=
EXTT6=
EXTT7=
PLAYORDER=
